<svg width="145" height="38" viewBox="0 0 145 38" fill="none" xmlns="http://www.w3.org/2000/svg">
<rect width="145" height="38" rx="4" fill="#F5F4FA"/>
<path d="M32.3244 24H30.3556V14.2188H25.3478V24H23.3791V12.625H32.3244V24ZM42.4137 19.8594C42.4137 21.1667 42.1169 22.2109 41.5231 22.9922C40.9294 23.7682 40.1325 24.1562 39.1325 24.1562C38.2054 24.1562 37.4632 23.8516 36.9059 23.2422V27.25H35.0075V15.5469H36.7575L36.8356 16.4062C37.3929 15.7292 38.1507 15.3906 39.1091 15.3906C40.1403 15.3906 40.9476 15.776 41.5309 16.5469C42.1195 17.3125 42.4137 18.3776 42.4137 19.7422V19.8594ZM40.5231 19.6953C40.5231 18.8516 40.3539 18.1823 40.0153 17.6875C39.682 17.1927 39.2028 16.9453 38.5778 16.9453C37.8018 16.9453 37.2445 17.2656 36.9059 17.9062V21.6562C37.2497 22.3125 37.8122 22.6406 38.5934 22.6406C39.1976 22.6406 39.669 22.3984 40.0075 21.9141C40.3512 21.4245 40.5231 20.6849 40.5231 19.6953ZM49.7844 15.5469H51.675V24H49.7844V18.3594L46.4719 24H44.5812V15.5469H46.4719V21.1875L49.7844 15.5469ZM61.3581 15.5469V24H59.4597V17.0781H57.0691L56.9128 20.0234C56.8139 21.4401 56.5404 22.4583 56.0925 23.0781C55.6498 23.6927 54.9701 24 54.0534 24H53.4675L53.4597 22.4219L53.8503 22.3828C54.267 22.3255 54.5691 22.0729 54.7566 21.625C54.9493 21.1719 55.0717 20.349 55.1238 19.1562L55.28 15.5469H61.3581ZM63.5022 19.6953C63.5022 18.8672 63.6662 18.1224 63.9944 17.4609C64.3225 16.7943 64.7834 16.2839 65.3772 15.9297C65.9709 15.5703 66.6532 15.3906 67.4241 15.3906C68.5647 15.3906 69.4892 15.7578 70.1975 16.4922C70.911 17.2266 71.2965 18.2005 71.3537 19.4141L71.3616 19.8594C71.3616 20.6927 71.2001 21.4375 70.8772 22.0938C70.5595 22.75 70.1011 23.2578 69.5022 23.6172C68.9084 23.9766 68.2209 24.1562 67.4397 24.1562C66.247 24.1562 65.2912 23.7604 64.5725 22.9688C63.859 22.1719 63.5022 21.112 63.5022 19.7891V19.6953ZM65.4006 19.8594C65.4006 20.7292 65.5803 21.4115 65.9397 21.9062C66.2991 22.3958 66.7991 22.6406 67.4397 22.6406C68.0803 22.6406 68.5777 22.3906 68.9319 21.8906C69.2912 21.3906 69.4709 20.6589 69.4709 19.6953C69.4709 18.8411 69.286 18.1641 68.9162 17.6641C68.5517 17.1641 68.0543 16.9141 67.4241 16.9141C66.8043 16.9141 66.3121 17.1615 65.9475 17.6562C65.5829 18.1458 65.4006 18.8802 65.4006 19.8594ZM80.7166 20.6016H79.7088V24H77.8103V20.6016H76.8103L74.865 24H72.5369L75.3416 19.6016L72.6853 15.5469H75.0056L76.9197 18.8672H77.8103V15.5469H79.7088V18.8672H80.6072L82.5291 15.5469H84.8494L82.2009 19.5781L85.0213 24H82.6619L80.7166 20.6016ZM90.2434 24.1562C89.0403 24.1562 88.0638 23.7786 87.3138 23.0234C86.569 22.263 86.1966 21.2526 86.1966 19.9922V19.7578C86.1966 18.9141 86.358 18.1615 86.6809 17.5C87.0091 16.8333 87.4674 16.3151 88.0559 15.9453C88.6445 15.5755 89.3007 15.3906 90.0247 15.3906C91.1757 15.3906 92.0638 15.7578 92.6888 16.4922C93.319 17.2266 93.6341 18.2656 93.6341 19.6094V20.375H88.1106C88.1679 21.0729 88.3997 21.625 88.8059 22.0312C89.2174 22.4375 89.733 22.6406 90.3528 22.6406C91.2226 22.6406 91.9309 22.2891 92.4778 21.5859L93.5013 22.5625C93.1627 23.0677 92.7096 23.4609 92.1419 23.7422C91.5794 24.0182 90.9466 24.1562 90.2434 24.1562ZM90.0169 16.9141C89.496 16.9141 89.0742 17.0964 88.7513 17.4609C88.4335 17.8255 88.2304 18.3333 88.1419 18.9844H91.7591V18.8438C91.7174 18.2083 91.5481 17.7292 91.2513 17.4062C90.9544 17.0781 90.5429 16.9141 90.0169 16.9141ZM102.755 24H100.856V20.5859H97.5672V24H95.6687V15.5469H97.5672V19.0703H100.856V15.5469H102.755V24ZM110.539 15.5469H112.43V24H110.539V18.3594L107.227 24H105.336V15.5469H107.227V21.1875L110.539 15.5469ZM121.699 15.5469V24H119.808V20.8984H118.035L116.23 24H114.262L116.254 20.5859C115.733 20.3672 115.332 20.0547 115.051 19.6484C114.775 19.2422 114.637 18.776 114.637 18.25C114.637 17.4635 114.939 16.8203 115.543 16.3203C116.152 15.8151 116.973 15.5573 118.004 15.5469H121.699ZM116.535 18.2969C116.535 18.651 116.665 18.9401 116.926 19.1641C117.191 19.3828 117.53 19.4922 117.941 19.4922H119.808V17.0547H118.058C117.595 17.0547 117.225 17.1719 116.949 17.4062C116.673 17.6406 116.535 17.9375 116.535 18.2969Z" fill="#212121"/>
</svg>
