<svg width="128" height="38" viewBox="0 0 128 38" fill="none" xmlns="http://www.w3.org/2000/svg">
<rect width="128" height="38" rx="4" fill="#F5F4FA"/>
<path d="M23.2675 24V12.625H27.1659C28.4524 12.625 29.4316 12.8828 30.1034 13.3984C30.7753 13.9141 31.1113 14.6823 31.1113 15.7031C31.1113 16.224 30.9706 16.6927 30.6894 17.1094C30.4081 17.526 29.9967 17.849 29.455 18.0781C30.0696 18.2448 30.5435 18.5599 30.8769 19.0234C31.2154 19.4818 31.3847 20.0339 31.3847 20.6797C31.3847 21.7474 31.0409 22.5677 30.3534 23.1406C29.6711 23.7135 28.692 24 27.4159 24H23.2675ZM25.2441 18.8672V22.4219H27.4394C28.0592 22.4219 28.5435 22.2682 28.8925 21.9609C29.2415 21.6536 29.4159 21.2266 29.4159 20.6797C29.4159 19.4974 28.8118 18.8932 27.6034 18.8672H25.2441ZM25.2441 17.4141H27.1816C27.7961 17.4141 28.2753 17.276 28.6191 17C28.968 16.7188 29.1425 16.3229 29.1425 15.8125C29.1425 15.25 28.981 14.8438 28.6581 14.5938C28.3404 14.3438 27.843 14.2188 27.1659 14.2188H25.2441V17.4141ZM37.3803 24.1562C36.1772 24.1562 35.2006 23.7786 34.4506 23.0234C33.7058 22.263 33.3334 21.2526 33.3334 19.9922V19.7578C33.3334 18.9141 33.4949 18.1615 33.8178 17.5C34.1459 16.8333 34.6043 16.3151 35.1928 15.9453C35.7814 15.5755 36.4376 15.3906 37.1616 15.3906C38.3126 15.3906 39.2006 15.7578 39.8256 16.4922C40.4558 17.2266 40.7709 18.2656 40.7709 19.6094V20.375H35.2475C35.3048 21.0729 35.5366 21.625 35.9428 22.0312C36.3543 22.4375 36.8699 22.6406 37.4897 22.6406C38.3595 22.6406 39.0678 22.2891 39.6147 21.5859L40.6381 22.5625C40.2996 23.0677 39.8465 23.4609 39.2788 23.7422C38.7163 24.0182 38.0834 24.1562 37.3803 24.1562ZM37.1538 16.9141C36.6329 16.9141 36.211 17.0964 35.8881 17.4609C35.5704 17.8255 35.3673 18.3333 35.2788 18.9844H38.8959V18.8438C38.8543 18.2083 38.685 17.7292 38.3881 17.4062C38.0913 17.0781 37.6798 16.9141 37.1538 16.9141ZM46.7119 16.0156C47.7744 16.0156 48.6259 16.3724 49.2666 17.0859C49.9072 17.7943 50.2275 18.7578 50.2275 19.9766V20.0703C50.2275 21.2891 49.8785 22.276 49.1806 23.0312C48.4879 23.7865 47.5452 24.1641 46.3525 24.1641C45.191 24.1641 44.2535 23.7786 43.54 23.0078C42.8265 22.237 42.4697 21.1849 42.4697 19.8516V19.3047C42.4697 17.4818 42.7926 16.0391 43.4384 14.9766C44.0843 13.9141 45.0478 13.25 46.3291 12.9844C47.0478 12.8385 47.5114 12.6849 47.7197 12.5234C47.9332 12.3568 48.04 12.1328 48.04 11.8516H49.5713C49.5713 12.3776 49.4853 12.8047 49.3134 13.1328C49.1416 13.4609 48.8785 13.7292 48.5244 13.9375C48.1702 14.1406 47.5608 14.3333 46.6963 14.5156C45.9046 14.6823 45.3004 14.9792 44.8838 15.4062C44.4723 15.8333 44.1963 16.4245 44.0556 17.1797C44.8108 16.4036 45.6963 16.0156 46.7119 16.0156ZM46.3369 17.5391C45.7223 17.5391 45.2405 17.7474 44.8916 18.1641C44.5426 18.5755 44.3681 19.2109 44.3681 20.0703C44.3681 20.8828 44.54 21.5156 44.8838 21.9688C45.2275 22.4219 45.7171 22.6484 46.3525 22.6484C46.9827 22.6484 47.4697 22.4219 47.8134 21.9688C48.1624 21.5104 48.3369 20.8229 48.3369 19.9062C48.3369 19.1771 48.1624 18.6016 47.8134 18.1797C47.4697 17.7526 46.9775 17.5391 46.3369 17.5391ZM55.8794 19.9297H51.7778V18.3984H55.8794V19.9297ZM61.3984 22.6406C61.8724 22.6406 62.2656 22.5026 62.5781 22.2266C62.8906 21.9505 63.0573 21.6094 63.0781 21.2031H64.8672C64.8464 21.7292 64.6823 22.2214 64.375 22.6797C64.0677 23.1328 63.651 23.4922 63.125 23.7578C62.599 24.0234 62.0312 24.1562 61.4219 24.1562C60.2396 24.1562 59.3021 23.7734 58.6094 23.0078C57.9167 22.2422 57.5703 21.1849 57.5703 19.8359V19.6406C57.5703 18.3542 57.9141 17.3255 58.6016 16.5547C59.2891 15.7786 60.2266 15.3906 61.4141 15.3906C62.4193 15.3906 63.237 15.6849 63.8672 16.2734C64.5026 16.8568 64.8359 17.625 64.8672 18.5781H63.0781C63.0573 18.0938 62.8906 17.6953 62.5781 17.3828C62.2708 17.0703 61.8776 16.9141 61.3984 16.9141C60.7839 16.9141 60.3099 17.138 59.9766 17.5859C59.6432 18.0286 59.474 18.7031 59.4688 19.6094V19.9141C59.4688 20.8307 59.6328 21.5156 59.9609 21.9688C60.2943 22.4167 60.7734 22.6406 61.3984 22.6406ZM71.8316 24C71.7482 23.8385 71.6753 23.5755 71.6128 23.2109C71.0086 23.8411 70.2691 24.1562 69.3941 24.1562C68.5451 24.1562 67.8524 23.9141 67.3159 23.4297C66.7795 22.9453 66.5113 22.3464 66.5113 21.6328C66.5113 20.7318 66.8446 20.0417 67.5113 19.5625C68.1831 19.0781 69.1415 18.8359 70.3863 18.8359H71.5503V18.2812C71.5503 17.8438 71.4279 17.4948 71.1831 17.2344C70.9383 16.9688 70.5659 16.8359 70.0659 16.8359C69.6336 16.8359 69.2795 16.9453 69.0034 17.1641C68.7274 17.3776 68.5894 17.651 68.5894 17.9844H66.6909C66.6909 17.5208 66.8446 17.0885 67.1519 16.6875C67.4592 16.2812 67.8758 15.9635 68.4019 15.7344C68.9331 15.5052 69.5243 15.3906 70.1753 15.3906C71.1649 15.3906 71.954 15.6406 72.5425 16.1406C73.131 16.6354 73.4331 17.3333 73.4488 18.2344V22.0469C73.4488 22.8073 73.5555 23.4141 73.7691 23.8672V24H71.8316ZM69.7456 22.6328C70.1206 22.6328 70.4722 22.5417 70.8003 22.3594C71.1336 22.1771 71.3836 21.9323 71.5503 21.625V20.0312H70.5269C69.8238 20.0312 69.2951 20.1536 68.9409 20.3984C68.5868 20.6432 68.4097 20.9896 68.4097 21.4375C68.4097 21.8021 68.5295 22.0938 68.7691 22.3125C69.0139 22.526 69.3394 22.6328 69.7456 22.6328ZM81.1944 15.5469H83.085V24H81.1944V18.3594L77.8819 24H75.9913V15.5469H77.8819V21.1875L81.1944 15.5469ZM82.085 12.3047C82.085 12.9609 81.8558 13.4922 81.3975 13.8984C80.9392 14.3047 80.3272 14.5078 79.5616 14.5078C78.7959 14.5078 78.184 14.3047 77.7256 13.8984C77.2673 13.4922 77.0381 12.9609 77.0381 12.3047H78.46C78.46 12.6484 78.5564 12.9167 78.7491 13.1094C78.947 13.2969 79.2178 13.3906 79.5616 13.3906C79.9053 13.3906 80.1735 13.2969 80.3663 13.1094C80.559 12.9167 80.6553 12.6484 80.6553 12.3047H82.085ZM92.2369 17.0547H89.4947V24H87.5963V17.0547H84.8853V15.5469H92.2369V17.0547ZM96.0294 18.2344H97.8887C98.5815 18.2344 99.1856 18.3542 99.7012 18.5938C100.217 18.8333 100.607 19.1693 100.873 19.6016C101.144 20.0339 101.279 20.5365 101.279 21.1094C101.279 21.9792 100.972 22.6771 100.357 23.2031C99.7429 23.7292 98.9252 23.9948 97.9044 24H94.1309V15.5469H96.0294V18.2344ZM104.584 24H102.686V15.5469H104.584V24ZM96.0294 19.7578V22.4844H97.8809C98.3445 22.4844 98.7091 22.3698 98.9747 22.1406C99.2455 21.9062 99.3809 21.5755 99.3809 21.1484C99.3809 20.7214 99.2481 20.3854 98.9825 20.1406C98.7221 19.8906 98.3679 19.763 97.92 19.7578H96.0294Z" fill="#212121"/>
</svg>
