<svg width="130" height="38" viewBox="0 0 130 38" fill="none" xmlns="http://www.w3.org/2000/svg">
<rect width="130" height="38" rx="4" fill="#F5F4FA"/>
<path d="M25.8378 12.625L29.1191 21.3438L32.3925 12.625H34.9472V24H32.9784V20.25L33.1738 15.2344L29.8144 24H28.4003L25.0488 15.2422L25.2441 20.25V24H23.2753V12.625H25.8378ZM42.6381 24C42.5548 23.8385 42.4819 23.5755 42.4194 23.2109C41.8152 23.8411 41.0756 24.1562 40.2006 24.1562C39.3517 24.1562 38.659 23.9141 38.1225 23.4297C37.586 22.9453 37.3178 22.3464 37.3178 21.6328C37.3178 20.7318 37.6511 20.0417 38.3178 19.5625C38.9897 19.0781 39.948 18.8359 41.1928 18.8359H42.3569V18.2812C42.3569 17.8438 42.2345 17.4948 41.9897 17.2344C41.7449 16.9688 41.3725 16.8359 40.8725 16.8359C40.4402 16.8359 40.086 16.9453 39.81 17.1641C39.534 17.3776 39.3959 17.651 39.3959 17.9844H37.4975C37.4975 17.5208 37.6511 17.0885 37.9584 16.6875C38.2657 16.2812 38.6824 15.9635 39.2084 15.7344C39.7397 15.5052 40.3308 15.3906 40.9819 15.3906C41.9715 15.3906 42.7605 15.6406 43.3491 16.1406C43.9376 16.6354 44.2397 17.3333 44.2553 18.2344V22.0469C44.2553 22.8073 44.3621 23.4141 44.5756 23.8672V24H42.6381ZM40.5522 22.6328C40.9272 22.6328 41.2788 22.5417 41.6069 22.3594C41.9402 22.1771 42.1902 21.9323 42.3569 21.625V20.0312H41.3334C40.6303 20.0312 40.1017 20.1536 39.7475 20.3984C39.3933 20.6432 39.2163 20.9896 39.2163 21.4375C39.2163 21.8021 39.336 22.0938 39.5756 22.3125C39.8204 22.526 40.1459 22.6328 40.5522 22.6328ZM54.1259 19.8594C54.1259 21.1667 53.8291 22.2109 53.2353 22.9922C52.6416 23.7682 51.8447 24.1562 50.8447 24.1562C49.9176 24.1562 49.1754 23.8516 48.6181 23.2422V27.25H46.7197V15.5469H48.4697L48.5478 16.4062C49.1051 15.7292 49.8629 15.3906 50.8213 15.3906C51.8525 15.3906 52.6598 15.776 53.2431 16.5469C53.8317 17.3125 54.1259 18.3776 54.1259 19.7422V19.8594ZM52.2353 19.6953C52.2353 18.8516 52.066 18.1823 51.7275 17.6875C51.3942 17.1927 50.915 16.9453 50.29 16.9453C49.514 16.9453 48.9567 17.2656 48.6181 17.9062V21.6562C48.9619 22.3125 49.5244 22.6406 50.3056 22.6406C50.9098 22.6406 51.3811 22.3984 51.7197 21.9141C52.0634 21.4245 52.2353 20.6849 52.2353 19.6953ZM59.2231 20.6562H58.2622V24H56.3638V15.5469H58.2622V18.9219H59.0981L61.4341 15.5469H63.7778L60.7231 19.5938L64.0356 24H61.5669L59.2231 20.6562ZM69.1562 24.1562C67.9531 24.1562 66.9766 23.7786 66.2266 23.0234C65.4818 22.263 65.1094 21.2526 65.1094 19.9922V19.7578C65.1094 18.9141 65.2708 18.1615 65.5938 17.5C65.9219 16.8333 66.3802 16.3151 66.9688 15.9453C67.5573 15.5755 68.2135 15.3906 68.9375 15.3906C70.0885 15.3906 70.9766 15.7578 71.6016 16.4922C72.2318 17.2266 72.5469 18.2656 72.5469 19.6094V20.375H67.0234C67.0807 21.0729 67.3125 21.625 67.7188 22.0312C68.1302 22.4375 68.6458 22.6406 69.2656 22.6406C70.1354 22.6406 70.8438 22.2891 71.3906 21.5859L72.4141 22.5625C72.0755 23.0677 71.6224 23.4609 71.0547 23.7422C70.4922 24.0182 69.8594 24.1562 69.1562 24.1562ZM68.9297 16.9141C68.4089 16.9141 67.987 17.0964 67.6641 17.4609C67.3464 17.8255 67.1432 18.3333 67.0547 18.9844H70.6719V18.8438C70.6302 18.2083 70.4609 17.7292 70.1641 17.4062C69.8672 17.0781 69.4557 16.9141 68.9297 16.9141ZM81.0659 17.0547H78.3238V24H76.4253V17.0547H73.7144V15.5469H81.0659V17.0547ZM88.0928 15.5469H89.9834V24H88.0928V18.3594L84.7803 24H82.8897V15.5469H84.7803V21.1875L88.0928 15.5469ZM99.6431 24H97.7447V20.5859H94.4556V24H92.5572V15.5469H94.4556V19.0703H97.7447V15.5469H99.6431V24ZM107.779 17.0781H104.107V24H102.217V15.5469H107.779V17.0781Z" fill="#212121"/>
</svg>
