<svg width="103" height="38" viewBox="0 0 103 38" fill="none" xmlns="http://www.w3.org/2000/svg">
<rect width="103" height="38" rx="4" fill="#F5F4FA"/>
<path d="M33.6984 26.7969H31.8234V24H24.3312V26.7969H22.425L22.3625 22.4219H23.2766C23.7297 21.9844 24.0917 21.349 24.3625 20.5156C24.6333 19.6771 24.8078 18.7292 24.8859 17.6719L25.1828 12.625H32.3547V22.4219H33.8L33.6984 26.7969ZM25.5109 22.4219H30.3859V14.2188H27.0656L26.8781 17.4219C26.7375 19.5625 26.2818 21.2292 25.5109 22.4219ZM40.8581 15.5469H42.7487V24H40.8581V18.3594L37.5456 24H35.655V15.5469H37.5456V21.1875L40.8581 15.5469ZM51.6506 17.8594C51.6506 18.2344 51.536 18.5807 51.3069 18.8984C51.0829 19.2109 50.7652 19.4609 50.3537 19.6484C51.3225 19.987 51.8069 20.6406 51.8069 21.6094C51.8069 22.3854 51.4918 23.0052 50.8616 23.4688C50.2314 23.9271 49.3876 24.1562 48.3303 24.1562C47.6845 24.1562 47.0959 24.0495 46.5647 23.8359C46.0334 23.6172 45.6194 23.3099 45.3225 22.9141C45.0256 22.513 44.8772 22.0391 44.8772 21.4922H46.7678C46.7678 21.8359 46.9215 22.125 47.2287 22.3594C47.536 22.5885 47.9241 22.7031 48.3928 22.7031C48.8564 22.7031 49.2235 22.5964 49.4944 22.3828C49.7704 22.1641 49.9084 21.8802 49.9084 21.5312C49.9084 21.1198 49.7886 20.8229 49.5491 20.6406C49.3095 20.4583 48.9397 20.3672 48.4397 20.3672H47.0803V19H48.4866C49.3355 18.9896 49.76 18.6406 49.76 17.9531C49.76 17.6094 49.6376 17.3411 49.3928 17.1484C49.148 16.9557 48.8121 16.8594 48.385 16.8594C47.9683 16.8594 47.6168 16.9635 47.3303 17.1719C47.0439 17.375 46.9006 17.6328 46.9006 17.9453H45.01C45.01 17.2005 45.3225 16.5911 45.9475 16.1172C46.5725 15.638 47.3668 15.3984 48.3303 15.3984C49.3772 15.3984 50.1923 15.612 50.7756 16.0391C51.359 16.4661 51.6506 17.0729 51.6506 17.8594ZM58.9509 24C58.8676 23.8385 58.7947 23.5755 58.7322 23.2109C58.128 23.8411 57.3884 24.1562 56.5134 24.1562C55.6645 24.1562 54.9718 23.9141 54.4353 23.4297C53.8989 22.9453 53.6306 22.3464 53.6306 21.6328C53.6306 20.7318 53.964 20.0417 54.6306 19.5625C55.3025 19.0781 56.2608 18.8359 57.5056 18.8359H58.6697V18.2812C58.6697 17.8438 58.5473 17.4948 58.3025 17.2344C58.0577 16.9688 57.6853 16.8359 57.1853 16.8359C56.753 16.8359 56.3989 16.9453 56.1228 17.1641C55.8468 17.3776 55.7087 17.651 55.7087 17.9844H53.8103C53.8103 17.5208 53.964 17.0885 54.2712 16.6875C54.5785 16.2812 54.9952 15.9635 55.5212 15.7344C56.0525 15.5052 56.6436 15.3906 57.2947 15.3906C58.2843 15.3906 59.0733 15.6406 59.6619 16.1406C60.2504 16.6354 60.5525 17.3333 60.5681 18.2344V22.0469C60.5681 22.8073 60.6749 23.4141 60.8884 23.8672V24H58.9509ZM56.865 22.6328C57.24 22.6328 57.5916 22.5417 57.9197 22.3594C58.253 22.1771 58.503 21.9323 58.6697 21.625V20.0312H57.6462C56.9431 20.0312 56.4145 20.1536 56.0603 20.3984C55.7061 20.6432 55.5291 20.9896 55.5291 21.4375C55.5291 21.8021 55.6489 22.0938 55.8884 22.3125C56.1332 22.526 56.4587 22.6328 56.865 22.6328ZM68.3137 15.5469H70.2044V24H68.3137V18.3594L65.0012 24H63.1106V15.5469H65.0012V21.1875L68.3137 15.5469ZM69.2044 12.3047C69.2044 12.9609 68.9752 13.4922 68.5169 13.8984C68.0585 14.3047 67.4466 14.5078 66.6809 14.5078C65.9153 14.5078 65.3033 14.3047 64.845 13.8984C64.3867 13.4922 64.1575 12.9609 64.1575 12.3047H65.5794C65.5794 12.6484 65.6757 12.9167 65.8684 13.1094C66.0664 13.2969 66.3372 13.3906 66.6809 13.3906C67.0247 13.3906 67.2929 13.2969 67.4856 13.1094C67.6783 12.9167 67.7747 12.6484 67.7747 12.3047H69.2044ZM79.8641 24H77.9656V20.5859H74.6766V24H72.7781V15.5469H74.6766V19.0703H77.9656V15.5469H79.8641V24Z" fill="#212121"/>
</svg>
