<svg width="77" height="43" viewBox="0 0 77 43" fill="none" xmlns="http://www.w3.org/2000/svg">
<g filter="url(#filter0_ddd)">
<rect x="2" y="1" width="73" height="38" rx="4" fill="#2196F3"/>
</g>
<path d="M25.645 25V13.625H29.5434C30.8299 13.625 31.8091 13.8828 32.4809 14.3984C33.1528 14.9141 33.4888 15.6823 33.4888 16.7031C33.4888 17.224 33.3481 17.6927 33.0669 18.1094C32.7856 18.526 32.3742 18.849 31.8325 19.0781C32.4471 19.2448 32.921 19.5599 33.2544 20.0234C33.5929 20.4818 33.7622 21.0339 33.7622 21.6797C33.7622 22.7474 33.4184 23.5677 32.7309 24.1406C32.0486 24.7135 31.0695 25 29.7934 25H25.645ZM27.6216 19.8672V23.4219H29.8169C30.4367 23.4219 30.921 23.2682 31.27 22.9609C31.619 22.6536 31.7934 22.2266 31.7934 21.6797C31.7934 20.4974 31.1893 19.8932 29.9809 19.8672H27.6216ZM27.6216 18.4141H29.5591C30.1736 18.4141 30.6528 18.276 30.9966 18C31.3455 17.7188 31.52 17.3229 31.52 16.8125C31.52 16.25 31.3585 15.8438 31.0356 15.5938C30.7179 15.3438 30.2205 15.2188 29.5434 15.2188H27.6216V18.4141ZM39.5078 23.6406C39.9818 23.6406 40.375 23.5026 40.6875 23.2266C41 22.9505 41.1667 22.6094 41.1875 22.2031H42.9766C42.9557 22.7292 42.7917 23.2214 42.4844 23.6797C42.1771 24.1328 41.7604 24.4922 41.2344 24.7578C40.7083 25.0234 40.1406 25.1562 39.5312 25.1562C38.349 25.1562 37.4115 24.7734 36.7188 24.0078C36.026 23.2422 35.6797 22.1849 35.6797 20.8359V20.6406C35.6797 19.3542 36.0234 18.3255 36.7109 17.5547C37.3984 16.7786 38.3359 16.3906 39.5234 16.3906C40.5286 16.3906 41.3464 16.6849 41.9766 17.2734C42.612 17.8568 42.9453 18.625 42.9766 19.5781H41.1875C41.1667 19.0938 41 18.6953 40.6875 18.3828C40.3802 18.0703 39.987 17.9141 39.5078 17.9141C38.8932 17.9141 38.4193 18.138 38.0859 18.5859C37.7526 19.0286 37.5833 19.7031 37.5781 20.6094V20.9141C37.5781 21.8307 37.7422 22.5156 38.0703 22.9688C38.4036 23.4167 38.8828 23.6406 39.5078 23.6406ZM48.6128 25.1562C47.4097 25.1562 46.4331 24.7786 45.6831 24.0234C44.9383 23.263 44.5659 22.2526 44.5659 20.9922V20.7578C44.5659 19.9141 44.7274 19.1615 45.0503 18.5C45.3784 17.8333 45.8368 17.3151 46.4253 16.9453C47.0139 16.5755 47.6701 16.3906 48.3941 16.3906C49.5451 16.3906 50.4331 16.7578 51.0581 17.4922C51.6883 18.2266 52.0034 19.2656 52.0034 20.6094V21.375H46.48C46.5373 22.0729 46.7691 22.625 47.1753 23.0312C47.5868 23.4375 48.1024 23.6406 48.7222 23.6406C49.592 23.6406 50.3003 23.2891 50.8472 22.5859L51.8706 23.5625C51.5321 24.0677 51.079 24.4609 50.5112 24.7422C49.9487 25.0182 49.3159 25.1562 48.6128 25.1562ZM48.3862 17.9141C47.8654 17.9141 47.4435 18.0964 47.1206 18.4609C46.8029 18.8255 46.5998 19.3333 46.5112 19.9844H50.1284V19.8438C50.0868 19.2083 49.9175 18.7292 49.6206 18.4062C49.3237 18.0781 48.9123 17.9141 48.3862 17.9141Z" fill="white"/>
<defs>
<filter id="filter0_ddd" x="0" y="0" width="77" height="43" filterUnits="userSpaceOnUse" color-interpolation-filters="sRGB">
<feFlood flood-opacity="0" result="BackgroundImageFix"/>
<feColorMatrix in="SourceAlpha" type="matrix" values="0 0 0 0 0 0 0 0 0 0 0 0 0 0 0 0 0 0 127 0"/>
<feOffset dy="2"/>
<feGaussianBlur stdDeviation="1"/>
<feColorMatrix type="matrix" values="0 0 0 0 0 0 0 0 0 0 0 0 0 0 0 0 0 0 0.12 0"/>
<feBlend mode="normal" in2="BackgroundImageFix" result="effect1_dropShadow"/>
<feColorMatrix in="SourceAlpha" type="matrix" values="0 0 0 0 0 0 0 0 0 0 0 0 0 0 0 0 0 0 127 0"/>
<feOffset dy="1"/>
<feGaussianBlur stdDeviation="1"/>
<feColorMatrix type="matrix" values="0 0 0 0 0 0 0 0 0 0 0 0 0 0 0 0 0 0 0.08 0"/>
<feBlend mode="normal" in2="effect1_dropShadow" result="effect2_dropShadow"/>
<feColorMatrix in="SourceAlpha" type="matrix" values="0 0 0 0 0 0 0 0 0 0 0 0 0 0 0 0 0 0 127 0"/>
<feOffset dy="3"/>
<feGaussianBlur stdDeviation="0.5"/>
<feColorMatrix type="matrix" values="0 0 0 0 0 0 0 0 0 0 0 0 0 0 0 0 0 0 0.1 0"/>
<feBlend mode="normal" in2="effect2_dropShadow" result="effect3_dropShadow"/>
<feBlend mode="normal" in="SourceGraphic" in2="effect3_dropShadow" result="shape"/>
</filter>
</defs>
</svg>
